<?xml version="1.0" encoding="UTF-8" standalone="no"?>
<!-- Created with Inkscape (http://www.inkscape.org/) -->

<svg
   xmlns:dc="http://purl.org/dc/elements/1.1/"
   xmlns:cc="http://creativecommons.org/ns#"
   xmlns:rdf="http://www.w3.org/1999/02/22-rdf-syntax-ns#"
   xmlns:svg="http://www.w3.org/2000/svg"
   xmlns="http://www.w3.org/2000/svg"
   xmlns:sodipodi="http://sodipodi.sourceforge.net/DTD/sodipodi-0.dtd"
   xmlns:inkscape="http://www.inkscape.org/namespaces/inkscape"
   width="744.09448819"
   height="1052.3622047"
   id="svg2"
   version="1.1"
   inkscape:version="0.48.0 r9654"
   sodipodi:docname="New document 1">
  <defs
     id="defs4">
    <inkscape:perspective
       sodipodi:type="inkscape:persp3d"
       inkscape:vp_x="-47.477173 : 766.5974 : 1"
       inkscape:vp_y="0 : 1000 : 0"
       inkscape:vp_z="688.53609 : 925.19135 : 1"
       inkscape:persp3d-origin="372.04724 : 350.78739 : 1"
       id="perspective2998" />
  </defs>
  <sodipodi:namedview
     id="base"
     pagecolor="#ffffff"
     bordercolor="#666666"
     borderopacity="1.0"
     inkscape:pageopacity="0.0"
     inkscape:pageshadow="2"
     inkscape:zoom="0.98994949"
     inkscape:cx="421.70861"
     inkscape:cy="850.28585"
     inkscape:document-units="px"
     inkscape:current-layer="layer1"
     showgrid="false"
     inkscape:window-width="1366"
     inkscape:window-height="695"
     inkscape:window-x="0"
     inkscape:window-y="25"
     inkscape:window-maximized="1" />
  <metadata
     id="metadata7">
    <rdf:RDF>
      <cc:Work
         rdf:about="">
        <dc:format>image/svg+xml</dc:format>
        <dc:type
           rdf:resource="http://purl.org/dc/dcmitype/StillImage" />
        <dc:title></dc:title>
      </cc:Work>
    </rdf:RDF>
  </metadata>
  <g
     inkscape:label="Layer 1"
     inkscape:groupmode="layer"
     id="layer1">
    <path
       style="fill:#ffff00;stroke:#ff5b00;stroke-width:1px;stroke-linecap:butt;stroke-linejoin:miter;stroke-opacity:1"
       d="M 85.862966,72.514214 269.71073,268.48381"
       id="path2985"
       inkscape:connector-curvature="0"
       sodipodi:nodetypes="cc" />
    <path
       style="fill:#a0a0a0;stroke:none"
       d=""
       id="path3058"
       inkscape:connector-curvature="0" />
    <path
       style="fill:#0000d8;fill-opacity:1;stroke:#0000d8;stroke-width:0.5px;stroke-linecap:butt;stroke-linejoin:miter;stroke-opacity:1"
       d="m 304.97863,64.534576 17.25796,25.527488 13.32104,-17.959671 6.20773,7.984991 36.28459,-24.790161 -21.7275,-31.030068 -35.29145,25.327922 5.95967,9.391855 z"
       id="path3876"
       inkscape:connector-curvature="0"
       sodipodi:nodetypes="ccccccccc" />
    <path
       sodipodi:type="arc"
       style="fill:#ff5b00;fill-opacity:1;stroke:#ff5b00;stroke-opacity:1"
       id="path3878"
       sodipodi:cx="628.81995"
       sodipodi:cy="92.212189"
       sodipodi:rx="20.708128"
       sodipodi:ry="20.708128"
       d="m 649.52807,92.212189 a 20.708128,20.708128 0 1 1 -41.41625,0 20.708128,20.708128 0 1 1 41.41625,0 z" />
    <path
       style="fill:#808080;stroke:#000000;stroke-width:0.75px;stroke-linecap:butt;stroke-linejoin:miter;stroke-opacity:1"
       d="m 622.98153,54.504424 13.15584,74.610456 c -0.84174,0.0423 46.10871,-9.8427 40.68978,-44.101196 -5.03753,-25.888603 -25.20733,-33.354029 -53.84562,-30.50926 z"
       id="path3880"
       inkscape:connector-curvature="0"
       sodipodi:nodetypes="cccc" />
    <path
       sodipodi:type="arc"
       style="fill:#000000;fill-opacity:1"
       id="path3896"
       sodipodi:cx="79.802048"
       sodipodi:cy="63.42284"
       sodipodi:rx="11.111678"
       sodipodi:ry="9.0913725"
       d="m 90.913726,63.42284 a 11.111678,9.0913725 0 1 1 -2.4e-5,-0.0189 l -11.111654,0.0189 z"
       sodipodi:start="0"
       sodipodi:end="6.2811067"
       transform="matrix(0.58041958,0,0,0.73076926,37.91251,24.729221)" />
    <path
       sodipodi:type="arc"
       style="fill:#000000;fill-opacity:1"
       id="path3896-0"
       sodipodi:cx="79.802048"
       sodipodi:cy="63.42284"
       sodipodi:rx="11.111678"
       sodipodi:ry="9.0913725"
       d="m 90.913726,63.42284 a 11.111678,9.0913725 0 1 1 -2.4e-5,-0.0189 l -11.111654,0.0189 z"
       sodipodi:start="0"
       sodipodi:end="6.2811067"
       transform="matrix(0.58041958,0,0,0.73076926,224.40221,224.15665)" />
    <path
       sodipodi:type="arc"
       style="fill:#808080;fill-opacity:1"
       id="path3896-0-6"
       sodipodi:cx="79.802048"
       sodipodi:cy="63.42284"
       sodipodi:rx="11.111678"
       sodipodi:ry="9.0913725"
       d="m 90.913726,63.42284 a 11.111678,9.0913725 0 1 1 -2.4e-5,-0.0189 l -11.111654,0.0189 z"
       sodipodi:start="0"
       sodipodi:end="6.2811067"
       transform="matrix(0.58041958,0,0,0.73076926,79.950397,26.166752)" />
    <path
       sodipodi:type="arc"
       style="fill:#808080;fill-opacity:1"
       id="path3896-0-6-5"
       sodipodi:cx="79.802048"
       sodipodi:cy="63.42284"
       sodipodi:rx="11.111678"
       sodipodi:ry="9.0913725"
       d="m 90.913726,63.42284 a 11.111678,9.0913725 0 1 1 -2.4e-5,-0.0189 l -11.111654,0.0189 z"
       sodipodi:start="0"
       sodipodi:end="6.2811067"
       transform="matrix(0.58041958,0,0,0.73076926,115.30574,41.319041)" />
    <path
       sodipodi:type="arc"
       style="fill:#808080;fill-opacity:1"
       id="path3896-0-6-0"
       sodipodi:cx="79.802048"
       sodipodi:cy="63.42284"
       sodipodi:rx="11.111678"
       sodipodi:ry="9.0913725"
       d="m 90.913726,63.42284 a 11.111678,9.0913725 0 1 1 -2.4e-5,-0.0189 l -11.111654,0.0189 z"
       sodipodi:start="0"
       sodipodi:end="6.2811067"
       transform="matrix(0.58041958,0,0,0.73076926,126.41742,80.714989)" />
    <path
       sodipodi:type="arc"
       style="fill:#808080;fill-opacity:1"
       id="path3896-0-6-1"
       sodipodi:cx="79.802048"
       sodipodi:cy="63.42284"
       sodipodi:rx="11.111678"
       sodipodi:ry="9.0913725"
       d="m 90.913726,63.42284 a 11.111678,9.0913725 0 1 1 -2.4e-5,-0.0189 l -11.111654,0.0189 z"
       sodipodi:start="0"
       sodipodi:end="6.2811067"
       transform="matrix(0.58041958,0,0,0.73076926,116.31589,128.19216)" />
    <path
       sodipodi:type="arc"
       style="fill:#808080;fill-opacity:1"
       id="path3896-0-6-1-6"
       sodipodi:cx="79.802048"
       sodipodi:cy="63.42284"
       sodipodi:rx="11.111678"
       sodipodi:ry="9.0913725"
       d="m 90.913726,63.42284 a 11.111678,9.0913725 0 1 1 -2.4e-5,-0.0189 l -11.111654,0.0189 z"
       sodipodi:start="0"
       sodipodi:end="6.2811067"
       transform="matrix(0.58041958,0,0,0.73076926,126.41742,168.59826)" />
    <path
       sodipodi:type="arc"
       style="fill:#808080;fill-opacity:1"
       id="path3896-0-6-1-6-4"
       sodipodi:cx="79.802048"
       sodipodi:cy="63.42284"
       sodipodi:rx="11.111678"
       sodipodi:ry="9.0913725"
       d="m 90.913726,63.42284 a 11.111678,9.0913725 0 1 1 -2.4e-5,-0.0189 l -11.111654,0.0189 z"
       sodipodi:start="0"
       sodipodi:end="6.2811067"
       transform="matrix(0.58041958,0,0,0.73076926,152.68138,201.93329)" />
    <path
       sodipodi:type="arc"
       style="fill:#808080;fill-opacity:1"
       id="path3896-0-6-1-6-9"
       sodipodi:cx="79.802048"
       sodipodi:cy="63.42284"
       sodipodi:rx="11.111678"
       sodipodi:ry="9.0913725"
       d="m 90.913726,63.42284 a 11.111678,9.0913725 0 1 1 -2.4e-5,-0.0189 l -11.111654,0.0189 z"
       sodipodi:start="0"
       sodipodi:end="6.2811067"
       transform="matrix(0.58041958,0,0,0.73076926,187.02657,223.1465)" />
    <path
       style="fill:none;stroke:#0000d8;stroke-width:1px;stroke-linecap:butt;stroke-linejoin:miter;stroke-opacity:1"
       d="m 85.862966,70.493909 38.385794,1.010152 38.3858,16.162441 11.11168,44.446708 -11.11168,42.42641 8.08122,40.4061 28.28427,34.34519 29.29443,19.1929 37.37564,5.05076"
       id="path4031"
       inkscape:connector-curvature="0" />
    <text
       xml:space="preserve"
       style="font-size:20px;font-style:normal;font-weight:normal;line-height:125%;letter-spacing:0px;word-spacing:0px;fill:#000000;fill-opacity:1;stroke:none;font-family:Sans"
       x="101.01525"
       y="305.85944"
       id="text4033"
       sodipodi:linespacing="125%"><tspan
         sodipodi:role="line"
         id="tspan4035"
         x="101.01525"
         y="305.85944">Selbsverschattung</tspan></text>
    <path
       style="fill:#000000;stroke:#000000;stroke-width:1px;stroke-linecap:butt;stroke-linejoin:miter;stroke-opacity:1"
       d="m 165.60374,286.66655 37.43692,-56.56854 -8.42784,0.65301 14.53952,-7.24438 0.82632,13.60116 -4.32596,-5.11204 -37.20232,55.68095 z"
       id="path4039"
       inkscape:connector-curvature="0"
       sodipodi:nodetypes="cccccccc" />
    <path
       style="fill:#999999;stroke:#9f9fa1;stroke-width:1px;stroke-linecap:butt;stroke-linejoin:miter;stroke-opacity:1"
       d="M 311.12698,78.575129 182.83761,173.52947"
       id="path4041"
       inkscape:connector-curvature="0" />
    <path
       style="fill:#999999;stroke:#9f9fa1;stroke-width:1px;stroke-linecap:butt;stroke-linejoin:miter;stroke-opacity:1"
       d="M 629.32504,91.707112 182.83761,174.53962"
       id="path4043"
       inkscape:connector-curvature="0" />
  </g>
</svg>
